<?xml version="1.0" encoding="utf-8"?>
<!-- Generator: Adobe Illustrator 24.0.1, SVG Export Plug-In . SVG Version: 6.00 Build 0)  -->
<svg version="1.1" id="Layer_1" xmlns="http://www.w3.org/2000/svg" xmlns:xlink="http://www.w3.org/1999/xlink" x="0px" y="0px"
	 viewBox="0 0 741.5 111.6" style="enable-background:new 0 0 741.5 111.6;" xml:space="preserve">
<style type="text/css">
	.st0{fill:#001846;}
	.st1{fill:#26BB9D;}
</style>
<g>
	<path class="st0" d="M188.4,61c0,5.4-0.6,10.7-2.4,15.8c-4,11.5-12.1,18.3-23.9,20.6c-6.4,1.2-12.9,1.1-19.3-0.6
		c-11.1-2.9-18.4-10.1-21.7-21c-2.9-9.6-2.9-19.4-0.2-29.1c3.7-13.1,13.6-21.3,27.1-22.8c6.3-0.7,12.5-0.4,18.5,1.6
		c11.3,3.7,17.8,11.8,20.4,23.1C187.9,52.7,188.5,61,188.4,61z M173.8,60.5c-0.1-4.9-0.6-10.1-2.9-14.9c-2.4-5-6.1-8.3-11.5-9.4
		c-2.6-0.5-5.3-0.7-8-0.6c-7.1,0.5-12.3,4-15.2,10.6c-0.5,1.2-1,2.5-1.3,3.7c-1.8,7.3-1.8,14.7,0,22c0.8,3.4,2.3,6.5,4.8,9.1
		c3.4,3.5,7.6,5,12.4,5.3c9.5,0.5,17-3.3,20.1-13.4C173.4,69,173.7,65,173.8,60.5z"/>
	<path class="st1" d="M278.1,84.9c0,0.5,0,0.9,0,1.4c0,7.3,0,14.6,0,21.8c0,3.1-0.3,3.5-3.5,3.5c-1.7,0-3.4,0-5,0
		c-1.7,0-2.3-0.6-2.3-2.3c0-10.5,0-21,0-31.4c0-16.4,0-32.8,0-49.2c0-0.6,0-1.1,0-1.7c0-1,0.6-1.6,1.6-1.6c2.4,0,4.9,0,7.3,0
		c1.2,0,1.7,0.7,1.7,2.1c0,2.8,0,5.6,0,8.4c0,0.3,0,0.6,0.1,1.1c0.3-0.3,0.5-0.4,0.6-0.6c3.2-6.1,8.4-9.6,14.9-11.4
		c8.5-2.3,16.9-2,24.9,1.7c7.8,3.6,12.3,10,14.7,18c1.2,3.9,1.8,8,2,12.1c0.4,6.1,0,12.1-1.5,18.1c-2.1,8.2-6.2,14.9-13.8,19.1
		c-4.2,2.3-8.8,3.4-13.5,3.6c-5,0.2-10,0-14.8-1.7c-5.7-1.9-10.1-5.3-12.7-10.8c-0.1-0.1-0.2-0.3-0.3-0.4
		C278.3,84.9,278.2,84.9,278.1,84.9z M278,60.8c0.2,2.5,0.4,5.1,0.7,7.6c0.2,1.4,0.5,2.8,1,4.2c2.2,7.3,6.6,12.5,14.1,14.7
		c4,1.2,8.1,1.3,12.2,0.8c7.3-0.9,12.7-4.5,15.6-11.4c1.6-3.8,2.2-7.9,2.5-12c0.4-5.8,0.1-11.5-1.5-17.1c-2-7-6.3-11.7-13.6-13.5
		c-3.6-0.9-7.2-1.1-10.8-0.7c-7.4,0.9-13.1,4.2-16.6,10.9C278.8,49.4,278,55,278,60.8z"/>
	<path class="st1" d="M473.4,85c-0.2,0.2-0.3,0.3-0.5,0.5c-3.7,6.1-9.4,9.6-16.2,11.2c-6.6,1.5-13.3,1.7-19.9-0.4
		c-7.2-2.2-12-6.8-13.3-14.5c-1.4-8.3,1.1-16.3,9.7-21c4.8-2.6,10-4.1,15.3-4.8c6-0.8,12.1-1.2,18.1-1.8c1.9-0.2,3.8-0.2,5.7-0.2
		c0.6,0,1.1-0.1,1.1-0.9c0.1-3.5,0.1-7-1-10.4c-1.7-5.3-5.8-7.9-11-8.8c-9.3-1.5-18.4-0.1-27.1,3.4c-0.5,0.2-1,0.4-1.6,0.6
		c-1.2,0.4-2.1,0.1-2.5-1.1c-0.7-2-1.3-3.9-1.8-5.9c-0.3-1.1,0.4-1.8,1.3-2.1c3.5-1.1,6.9-2.4,10.5-3.3c5.9-1.4,11.9-1.9,17.9-1.7
		c4.2,0.2,8.3,0.8,12.2,2.3c7.3,2.8,11.4,8.2,12.7,15.7c0.5,2.9,0.7,5.8,0.7,8.7c0.1,14.4,0,28.9,0,43.3c0,2.2-0.5,2.7-2.8,2.7
		c-1.7,0-3.4,0-5.2,0c-1.7,0-2.2-0.6-2.2-2.3c0-2.6,0-5.3,0-7.9c0-0.4,0-0.8,0-1.3C473.6,85,473.5,85,473.4,85z M473.4,66.6
		c0-1.2,0-2.2,0-3.1c0.1-1-0.4-1.3-1.4-1.2c-2,0.2-4.1,0.2-6.1,0.4c-5.5,0.5-11.1,1-16.6,1.7c-3.9,0.5-7.6,1.7-11,3.9
		c-3.5,2.3-5.2,5.7-4.9,9.8c0.3,4.8,3,7.9,7.5,9.5c6.7,2.3,13.4,1.6,20-0.9c4.6-1.8,8.1-4.8,10.4-9.3
		C473.1,73.9,473.5,70.2,473.4,66.6z"/>
	<path class="st1" d="M575.3,65.8c0.1,3.3,0.8,6.2,2.1,9c3.5,7.6,9.5,12,17.6,13.5c8.4,1.6,16.4,0.5,24-3.5c1.9-1,2.7-0.7,3.5,1.3
		c0.5,1.3,1.1,2.6,1.6,3.9c0.6,1.6,0.5,2.4-1.2,3c-3.1,1.3-6.2,2.5-9.4,3.5c-5.4,1.6-10.9,1.9-16.5,1.5c-8.8-0.6-16.8-3.5-23-10.1
		c-4.9-5.1-7.6-11.3-8.7-18.2c-1.4-8.5-1-16.9,1.8-25.1c4-11.6,12-18.5,24.3-20.4c6.7-1,13.3-0.6,19.6,2.1
		C619.7,30.1,624.8,37,627,46c0.8,3.1,1,6.5,1.2,9.7c0.2,2.7,0,5.4,0,8.2c0,1-0.5,1.7-1.5,1.7c-0.9,0-1.8,0.1-2.6,0.1
		c-15.7,0-31.4,0-47,0C576.6,65.8,576,65.8,575.3,65.8z M596.6,56.9c6.6,0,13.1,0,19.7,0c1.7,0,1.8,0,1.7-1.7
		c-0.1-2.1-0.3-4.3-0.7-6.4c-1.6-7.5-5.8-12.9-13.5-15c-4.6-1.2-9.2-1.1-13.8,0.2c-4.7,1.3-8.3,4-10.8,8.2
		c-2.4,4.1-3.4,8.6-3.8,13.2c-0.1,1.6,0,1.6,1.5,1.6C583.4,56.9,590,56.9,596.6,56.9z"/>
	<path class="st1" d="M359.3,65.8c0.2,3.9,1.1,7.3,2.9,10.5c4,7.3,10.4,11.1,18.4,12.3c8,1.1,15.7-0.1,22.8-3.9
		c1.4-0.8,2.3-0.4,3,1.1c0.6,1.5,1.2,2.9,1.8,4.4c0.6,1.4,0.3,2.1-1.1,2.8c-3.3,1.8-6.9,2.9-10.6,3.8c-5.1,1.2-10.4,1.6-15.6,1.2
		c-9.4-0.7-17.7-3.9-24-11.2c-4-4.6-6.4-10-7.5-16c-1.6-8.7-1.3-17.4,1.4-25.8c3.7-11.4,11.5-18.5,23.4-20.6
		c6.5-1.2,13.1-0.9,19.4,1.5c9.4,3.5,15,10.5,17.4,20.1c0.8,3,1,6.1,1.2,9.2c0.2,2.9,0,5.8,0.1,8.6c0,1.2-0.5,1.9-1.7,2
		c-0.6,0-1.2,0.1-1.8,0.1C392.9,65.8,360,65.8,359.3,65.8z M380.6,56.9c6.7,0,13.4,0,20,0c1,0,1.5-0.3,1.3-1.4
		c-0.3-2.4-0.3-4.8-0.8-7.1c-1.5-6.5-4.9-11.6-11.4-14c-4.1-1.6-8.3-1.8-12.6-1.2c-5.1,0.7-9.5,2.8-12.8,7.1
		c-3.5,4.6-4.6,10-5.1,15.6c-0.1,1,0.6,1,1.3,1C367.2,56.9,373.9,56.9,380.6,56.9z"/>
	<path class="st1" d="M515.4,49.9c1.8-1.4,3.5-2.8,5.3-4.3c7.8-6.3,15.6-12.6,23.4-19c1.1-0.9,2.2-1.3,3.6-1.3c3,0.1,6.1,0,9.1,0
		c0.8,0,1.6,0,1.7,0.9c0,0.5-0.4,1.3-0.9,1.7c-9.6,7.7-19.2,15.3-28.7,23c-2.2,1.8-4.5,3.6-6.8,5.5c0.4,0.5,0.7,0.9,1.1,1.2
		c11.8,11.9,23.6,23.7,35.3,35.6c0.2,0.2,0.4,0.3,0.5,0.5c0.3,0.6,0.9,1.4,0.7,1.7c-0.4,0.5-1.2,1-1.8,1c-3,0.1-6,0-9,0
		c-1.6,0-2.7-0.9-3.7-1.9c-7.2-7.4-14.4-14.8-21.6-22.1c-2.4-2.5-4.9-5-7.3-7.5c-0.3-0.3-0.6-0.5-1.1-1c0,0.8-0.1,1.3-0.1,1.8
		c0,9.4,0,18.7,0,28.1c0,2-0.5,2.5-2.5,2.6c-1.8,0-3.7,0-5.5,0c-2.2,0-2.8-0.6-2.8-2.8c0-3.6,0-7.3,0-10.9c0-26.5,0-53,0-79.5
		c0-0.4,0-0.8,0-1.2c0.1-1.5,0.6-2.1,2.2-2.1c2.1,0,4.2,0,6.4,0c1.8,0,2.3,0.5,2.3,2.3c0,15.3,0,30.6,0,45.8c0,0.5,0,1.1,0,1.6
		C515.2,49.8,515.3,49.9,515.4,49.9z"/>
	<path class="st1" d="M224,98c-7.7-0.2-15.1-1.2-22.4-3.8c-2.1-0.8-2.2-1-1.6-3.1c0.5-1.6,1-3.2,1.5-4.8c0.4-1.3,0.9-1.5,2-1.1
		c4.1,1.5,8.2,2.6,12.5,3c5.9,0.6,11.9,0.9,17.7-0.8c3.6-1.1,5.9-3.3,6.5-7c0.6-3.7-0.3-7-3.3-9.5c-2.8-2.3-6-3.7-9.4-5
		c-5.1-1.9-10.2-3.8-15.2-5.8c-3.6-1.4-6.8-3.5-9.1-6.6c-2-2.7-2.8-5.7-3-8.9c-0.2-3.4,0-6.7,1.4-9.9c2.4-5.5,6.9-8.2,12.4-9.6
		c5.1-1.3,10.3-1.4,15.6-1.1c4.6,0.3,9.1,1,13.5,2.5c1.2,0.4,2.5,1,3.7,1.4c1.1,0.4,1.5,1.1,1,2.2c-0.6,1.6-1.1,3.2-1.6,4.8
		c-0.5,1.6-1,1.8-2.7,1.3c-3.1-0.9-6.1-1.9-9.2-2.5c-5.7-1-11.4-1.1-17,0.3c-3.2,0.8-5.7,2.6-6.4,6.1c-0.8,3.7,0,7.1,3.1,9.6
		c2.8,2.4,6.2,3.6,9.6,4.9c4.9,1.9,9.9,3.7,14.7,5.8c3.4,1.5,6.4,3.7,8.7,6.6c3.4,4.1,4.3,8.9,3.8,14.1c-0.6,5.1-2.7,9.3-7,12.3
		c-3,2.1-6.3,3.2-9.9,3.8C230.7,97.5,227.3,97.7,224,98z"/>
	<path class="st1" d="M716.3,97.8c-9.5-0.1-17-1-24.2-3.6c-2.1-0.8-2.2-1.1-1.6-3.2c0.5-1.6,1-3.2,1.5-4.8c0.4-1.2,0.9-1.4,2.1-1
		c7.6,2.9,15.6,3.8,23.6,3.3c2.5-0.2,5.1-0.7,7.5-1.5c6.8-2.3,7-10.9,3.7-14.8c-2.4-2.8-5.6-4.4-8.9-5.7c-5.5-2.2-11-4.1-16.5-6.2
		c-3.5-1.4-6.7-3.2-9.1-6.2c-2.1-2.6-3.2-5.7-3.5-9c-0.3-2.9-0.1-5.7,0.6-8.5c1.5-5.4,5.2-8.7,10.3-10.7c3.4-1.3,6.9-1.9,10.5-2.1
		c8-0.3,15.9,0.4,23.4,3.3c3.2,1.2,3.2,1.3,2.1,4.6c-0.4,1.1-0.7,2.2-1.1,3.3c-0.5,1.3-1,1.6-2.4,1.1c-2.3-0.7-4.6-1.6-7-2.1
		c-6.4-1.4-12.9-1.7-19.3-0.2c-3.3,0.8-5.8,2.6-6.5,6.1c-0.8,3.9,0,7.4,3.2,9.7c2.3,1.6,4.9,2.9,7.5,4c5,2.1,10.2,3.8,15.2,5.9
		c3.9,1.6,7.3,3.9,10.1,7.2c3.2,3.7,4.3,8.1,4,12.9c-0.2,3.7-1.2,7.2-3.5,10.1c-2.9,3.7-6.9,5.6-11.3,6.7
		C722.6,97.6,718.5,97.9,716.3,97.8z"/>
	<path class="st1" d="M45.6,98c7-1.9,17.6-5.9,23.1-10.5C76.3,81,82.5,73,88,64.9c4.7-7.6,8.5-15.6,11.4-24.1c2-5.9,3.2-12,3.5-18.3
		c0.1-2.8,0.2-5.6,0.2-8.4c0-1.5,0.4-2.8,1.5-3.8c3.3-3.1,6.5-6.2,9.8-9.2c1.4-1.2,2.5-0.8,2.9,1c0.1,0.5,0.2,1,0.2,1.5
		c-0.2,5-0.3,10-0.7,14.9c-0.6,8-2.2,15.9-4.5,23.5C109,53,104.3,63.1,97.1,71.9C86.5,85.1,73,93.7,56.3,96.9
		C50.7,97.9,47.8,98,45.6,98z"/>
	<path class="st1" d="M656.5,40.6c0.2-0.3,0.4-0.6,0.5-0.9c3.7-7.6,9.6-12.4,18-14.1c1.5-0.3,3.2-0.3,4.8-0.4
		c0.9-0.1,1.4,0.4,1.4,1.3c0,3,0,6,0,9c0,1.1-0.7,1.4-1.6,1.4c-1.4,0-2.8-0.2-4.2-0.1c-4.9,0.2-8.7,2.6-11.9,6.2
		c-4.3,4.9-6.5,10.6-7,17.1c-0.2,2.1-0.2,4.3-0.2,6.5c0,9.2,0,18.5,0,27.7c0,1.7-0.5,2.2-2.1,2.3c-2.2,0.1-4.4,0.1-6.6,0
		c-1.5-0.1-2-0.7-2.2-2.2c0-0.3,0-0.6,0-1c0-21.6,0-43.2,0-64.8c0-0.6,0.1-1.1,0.1-1.7c0.1-1.1,0.8-1.5,1.8-1.5c2.3,0,4.6,0,7,0
		c1.4,0,1.9,0.5,1.9,2c0,3.9,0,7.8,0,11.8c0,0.4,0,0.9,0,1.3C656.3,40.5,656.4,40.5,656.5,40.6z"/>
	<path class="st0" d="M120.9,96c-0.1-0.5-0.3-1-0.6-1.4c-5.7-9.9-11.4-19.7-17.1-29.6c-0.1-0.1-0.3-0.5-0.6-0.9
		c-1.7,2.7-3.5,5.3-5.5,7.8c-1,1.2-2,2.4-3,3.5c3.9,6.7,8.3,14.3,12.1,20.9c0.6,1,1.3,1.8,2.5,1.8c3.5,0,7,0,10.4,0
		C120.3,98.1,121.1,97.2,120.9,96z"/>
	<path class="st0" d="M68.1,87.9c0.4-0.3,0.8-0.7,1.2-1c7-6.1,12.8-13.5,18-21c0.5-0.8,1.1-1.7,1.6-2.5c2.4-3.9,4.5-7.9,6.3-12.1
		c-0.1-0.2-0.2-0.4-0.4-0.8c-4.9-8.5-9.8-16.9-14.6-25.3c-0.7-1.2-1.7-1.7-3.1-1.7c-3.1,0-6.2,0-9.4,0c-2,0-2.8,1.4-1.9,3.2
		c0.2,0.5,0.5,0.9,0.8,1.4C73.3,39.5,79.9,51,86.5,62.4c0.5,0.9,0.5,1.5-0.2,2.3C83.2,68.5,79.8,72,75.9,75
		c-12.2,9.3-25.8,13.2-41,10.6c-6.1-1-11.4-3.6-15.5-8.4c-2.6-3.1-4.1-6.6-4.7-10.8c0.7,0,1.2,0,1.6,0c15.1,0,30.2,0,45.2,0
		c0.6,0,1.1,0,1.7,0c1.5-0.1,2.3-0.7,2.3-2.2c0.1-5.8,0.3-11.5-1-17.2c-2.6-10.7-8.6-18.4-19.3-21.8c-5.8-1.9-11.7-2.1-17.7-1.2
		C16.3,25.7,8.2,31.5,3.6,41.8C0.9,47.9,0,54.3,0,60.9C0,76.2,8.7,89,22.9,94.6c5.9,2.3,12.2,3.4,18.5,3.5c1.4,0,2.8,0,4.2-0.1
		C52.4,96.1,62.5,92.4,68.1,87.9z M19.5,41.2c3.2-3.8,7.5-5.5,12.4-5.6c2.4-0.1,4.8,0,7.1,0.5c4.8,1,8.3,3.8,10.5,8.2
		c1.8,3.7,2.4,7.6,2.3,11.7c-12.5,0-24.9,0-37.4,0C14.9,50.5,15.9,45.4,19.5,41.2z"/>
</g>
</svg>
