<?xml version="1.0" encoding="utf-8"?>
<!-- Generator: Adobe Illustrator 24.1.0, SVG Export Plug-In . SVG Version: 6.00 Build 0)  -->
<svg version="1.1" id="Layer_1" xmlns="http://www.w3.org/2000/svg" xmlns:xlink="http://www.w3.org/1999/xlink" x="0px" y="0px"
	 viewBox="0 0 55 65" style="enable-background:new 0 0 55 65;" xml:space="preserve">
<style type="text/css">
	.st0{fill:#001846;}
</style>
<g>
	<path class="st0" d="M1.3,53c0-1.6,0.6-3,1.7-4.2l13.6-13.6c-1.5-2.9-2.3-5.9-2.3-9.2c0-5.4,1.9-10,5.7-13.9
		c3.8-3.9,8.4-5.8,13.9-5.8c5.5,0,10.1,2,13.9,5.8c3.8,3.8,5.7,8.4,5.7,13.9S51.8,36.1,48,39.9c-3.8,3.8-8.4,5.7-13.9,5.7
		c-3.3,0-6.4-0.7-9.2-2.2L11.2,56.9c-1.2,1.2-2.5,1.7-4.1,1.7c-1.6,0-3-0.6-4.1-1.7C1.9,55.9,1.3,54.5,1.3,53z M4.2,52.9
		c0,0.8,0.3,1.4,0.8,2c0.6,0.6,1.2,0.9,2,0.8c0.8,0,1.5-0.3,2.1-0.9l13.2-13.2c-1.6-1.2-2.9-2.5-4.1-4.1L5.1,50.8
		C4.5,51.4,4.2,52.1,4.2,52.9z M17.7,26c0,4.5,1.6,8.4,4.8,11.6c3.2,3.2,7,4.8,11.6,4.8c4.5,0,8.4-1.6,11.6-4.8
		c3.2-3.1,4.8-7,4.8-11.6c0-4.6-1.6-8.4-4.8-11.6c-3.2-3.1-7-4.7-11.6-4.8c-4.5,0-8.4,1.6-11.6,4.8C19.3,17.6,17.7,21.5,17.7,26z
		 M22.6,26c0-3.1,1.1-5.8,3.4-8.1c2.3-2.2,5-3.4,8.1-3.4c0.6,0,0.8,0.3,0.8,0.8c0,0.6-0.3,0.8-0.8,0.8c-2.7,0-5,0.9-7,2.8
		c-1.9,1.9-2.9,4.2-2.8,7c0,0.6-0.3,0.8-0.8,0.8S22.6,26.5,22.6,26z"/>
</g>
</svg>
